<?xml version="1.0" encoding="UTF-8" standalone="no"?>
<svg xmlns:dc="http://purl.org/dc/elements/1.1/" xmlns:cc="http://creativecommons.org/ns#" xmlns:rdf="http://www.w3.org/1999/02/22-rdf-syntax-ns#" xmlns:svg="http://www.w3.org/2000/svg" xmlns="http://www.w3.org/2000/svg" xmlns:sodipodi="http://sodipodi.sourceforge.net/DTD/sodipodi-0.dtd" xmlns:inkscape="http://www.inkscape.org/namespaces/inkscape" version="1.0" viewBox="0 0 200.000000 106.000000" id="svg3049" inkscape:version="0.48.5 r10040" sodipodi:docname="Laptop-PC-Smartphone.svg">
  <defs id="defs3083"/>
  <sodipodi:namedview pagecolor="#ffffff" bordercolor="#666666" borderopacity="1" objecttolerance="10" gridtolerance="10" guidetolerance="10" inkscape:pageopacity="0" inkscape:pageshadow="2" inkscape:window-width="1366" inkscape:window-height="705" id="namedview3081" showgrid="false" inkscape:snap-grids="false" inkscape:snap-to-guides="false" inkscape:zoom="1.9459579" inkscape:cx="138.48395" inkscape:cy="29.629913" inkscape:window-x="-8" inkscape:window-y="-8" inkscape:window-maximized="1" inkscape:current-layer="svg3049" inkscape:snap-nodes="true" inkscape:snap-global="true" inkscape:object-paths="true"/>
  <metadata id="metadata3051">
Created by potrace 1.10, written by Peter Selinger 2001-2011
<rdf:RDF><cc:Work rdf:about=""><dc:format>image/svg+xml</dc:format><dc:type rdf:resource="http://purl.org/dc/dcmitype/StillImage"/></cc:Work></rdf:RDF>
</metadata>
  <path style="fill:#4d148c;stroke:none" inkscape:connector-curvature="0" id="path3055" d="m 135.2,76.8 c -2.5618,-1.816663 -21.0532,-2.490988 -19.9532,-1.290988 0.5514,0.7243 9.57495,0.156458 15.03564,0.94486 M 119.7,78.9 l -5.8,0.1 0.7,-5 c 0.6,-4.5 0.064,-5.981105 -1.53605,-5.381105 C 111.76395,69.118895 112,71 112.4,73.1 c 0.5,2.5 0.2,2.9 -1.5,2.9 -1.8,0 -2.1,-0.4 -1.6,-2.9 0.4,-2 0.27267,-4.190116 -0.72733,-4.590116 C 107.37267,68.109884 107,70.1 107,74 l 0,5 -4,0 -4,0 0,-5.5 0,-5.5 25,0 c 16,0 25,0.4 25,1 0,0.5 0.9,1 2,1 1.9,0 2,-0.7 2,-12.5 0,-10.7 0.2,-12.5 1.6,-12.5 0.8,0 1.2,0.4 0.9,1 -0.3,0.5 -0.1,1 0.4,1 0.6,0 1.1,-0.5 1.1,-1 0,-0.6 3.8,-1.665274 9.3,-1.665274 l 9.61111,-0.151389 -6.20556,-0.845834 c -8.70278,-0.631949 -15.34583,-1.119441 -17.54583,1.680559 L 150,48.5 l 0,-2.6 c 0,-4.4 1.4,-4.9 15,-4.7 8.8,0.1 11.2,0.3 8,0.8 L 164.4403,42.34028 172.8,42.8 c 2.6,0.1 5.4361,0.702777 5.0361,1.302777 5.30617,0.216859 14.12554,0.658649 16,1 L 194,68 l 0,23 -15.5,0 -15.5,0 0,3 0,3 15.8,0 c 14.1,0 16.1,-0.2 17.5,-1.8 1.5,-1.6 1.7,-5 1.7,-26.8 0,-18.4 -0.3,-25.5 -1.2,-26.7 -1.1,-1.5 -4,-1.8 -22.3,-2.2 C 147.8,39 149,38.4 149,52 c 0,6.4 -0.0856,8.411064 0.5186,8.764535 0.74535,0.436047 0.97268,1.308939 0.91803,1.84593 -0.18198,0.710901 -1.3189,0.519841 -1.67325,0.299418 C 148.09114,62.508575 148,61.5 144.9,61.8 143,61.9 132,61.8 120.3,61.4 L 99.1,60.8 98.8,49.6 98.5,38.5 78.3,38.2 58,38 c 0,-9.9 -0.513886,-20.51944 -0.513886,-30.41944 0,0 91.333816,-0.4402122 91.213886,-0.58056 l 15.3,0 0,16 0,16 2.5,0 2.5,0 -0.2,-18.3 -0.3,-18.2 -116,0.1 0.07272,35.362894 c 0,0 -18.014342,0.22466 -42.072721,0.537106 l 0,24.2 0,24.2 -4.9,5.7 c -4.7,5.4 -4.8,5.7 -3.1,7 1.5,1.1 11.3,1.4 52.1,1.4 27.6,0 50.900001,-0.3 51.800001,-0.6 0.9,-0.3 1.6,-1 1.6,-1.5 C 108,98.4 85.3,98 54.8,98 L 1.5,98 4.7,95.9 c 2.5,-1.6 3.6,-1.8 5.1,-1 1.5,0.8 2.1,0.7 2.6,-0.4 0.3,-0.8 1.6,-1.5 2.8,-1.5 1.3,0 2.9,-0.4 3.7,-0.9 0.9,-0.6 0.3,-0.8 -1.8,-0.6 -1.8,0.1 -3.7,0.7 -4.4,1.4 -2.6,2.6 -3.1484788,0.02587 -3.1484788,0.02587 L 13.96112,87.28056 95.088891,86.430571 C 96.911229,88.989108 100.86387,94 100.86387,94 98.356943,94.205554 96.8,92.8 95.7,91.3 L 93.6,88.6 93,91.1 C 92.4,93.4 92.1,93.5 82,93.8 76.2,93.9 65.1,94 57.3,94 46.5,94 43,94.3 43,95.2 c 0,1.6 21.1,1.8 22.2,0.3 0.5,-0.7 0.8,-0.7 0.8,0 0,0.6 5,0.9 13.2,0.8 11.2,-0.1 13.4,-0.4 13.6,-1.7 0.4,-2 3.1,-2.1 3.8,-0.1 0.5,1.1 1.1,1.2 2.5,0.5 1.4,-0.8 6.47706,2.45762 8.67706,3.55762 L 103,91.5 99,86.055543 99,80.5 114.8,80.4 c 12.61163,-0.427035 23.42674,-1.445349 20.4,-3.454651 M 166.5,6 c 0.3,0.5 0.1,1 -0.4,1 -0.6,0 -1.1,-0.5 -1.1,-1 0,-0.6 0.2,-1 0.4,-1 0.3,0 0.8,0.4 1.1,1 z M 49,40 c 0,0.5 -0.4,1 -1,1 -0.5,0 -1,-0.5 -1,-1 0,-0.6 0.5,-1 1,-1 0.6,0 1,0.4 1,1 z m 7.8,-0.3 c -1,0.2 -2.6,0.2 -3.5,0 -1,-0.3 -0.2,-0.5 1.7,-0.5 1.9,0 2.7,0.2 1.8,0.5 z M 14.172965,41.508721 94.8,41.5 c 0,0 0.0079,42.326036 0,42.5 l -80.791669,0 c -0.138838,0.03749 0.164634,-42.491279 0.164634,-42.491279 z M 107,65.1 c 0,0.6 -1.4,0.9 -3.6,0.6 C 98.3,65 98,64 102.8,64 c 2.4,0 4.2,0.5 4.2,1.1 z m 4.64028,-0.254166 c 0.01,0.556529 -0.16566,0.947053 -0.88535,0.947053 -0.79567,0 -0.98059,-0.435244 -0.98514,-0.921358 0.0132,-0.573332 0.31517,-0.879567 0.96073,-0.879567 0.52271,0 0.90267,0.444465 0.90976,0.853872 z M 145.5,65.2 c 0.4,0.3 -6.6,0.6 -15.5,0.5 -8.9,0 -15.7,-0.3 -15.1,-0.6 1.3,-0.8 29.8,-0.7 30.6,0.1 z M 175,94 c 0,0.5 -0.4,1 -1,1 -0.5,0 -1,-0.5 -1,-1 0,-0.6 0.5,-1 1,-1 0.6,0 1,0.4 1,1 z m 15,0 c 0,0.5 -0.65694,1 -1.15694,1 -0.6,0 -1.14584,-0.294446 -1.34306,-1 -0.0431,-0.6 0.40833,-1.35972 1.20833,-1.35972 C 189.60833,92.64028 190,93.4 190,94 z" sodipodi:nodetypes="ccccccccsscscccccssssscsscccccsccccccccccccscsccsscccccccccccccccccccccccccssssccscsccsccccccccsscscccccccccccssscsssssccsccccccscsssscssccccssssssscss"/>
  <path style="fill:#4d148c;stroke:none" inkscape:connector-curvature="0" id="path3057" d="m 141.76854,70.83857 c -0.3,0.7 -0.19099,9.081104 -0.091,17.581104 l -0.0634,15.500006 10.39971,-0.0363 10.35972,0 0.0431,-16.545837 0.0972,-16.754166 -10.1,0 c -5.50988,0.245349 -10.34535,-0.444767 -10.64535,0.255233 z m 7.04535,1.244767 c -0.7,0.2 -2.1,0.2 -3,0 -1,-0.3 -0.4,-0.5 1.2,-0.5 1.7,0 2.4,0.2 1.8,0.5 z m 6.02502,2.222917 6.67498,0.07708 0,12.5 0,12.5 -9.5,0 -9.5,0 0,-12.5 0,-12.5 8.75137,-0.05139 c 3.29994,-0.01938 1.72964,-0.264924 1.72964,-0.264924 -2.52459,-2.044649 2.2665,-2.515207 0.0311,0.0088 0.0715,0.234726 0.0723,0.210312 1.81294,0.230413 z m -8.32502,27.077086 c 0,0.5 -0.4,1 -1,1 -0.5,0 -1,-0.5 -1,-1 0,-0.6 0.5,-1 1,-1 0.6,0 1,0.4 1,1 z m 12.89099,0 c 0,0.46366 -0.38169,0.7093 -0.83605,0.81831 -0.3,0 -0.8008,-0.2286 -0.88197,-0.74564 -0.0892,-0.56819 0.22703,-1.07267 0.72703,-1.07267 0.6,0 0.99099,0.4 0.99099,1 z" sodipodi:nodetypes="scccccccsccscscccccccsccsssssssscsss"/>
  <path style="fill:#4d148c;stroke:none" inkscape:connector-curvature="0" id="path3059" d="m 98.973628,76.085414 c 0.90472,0.80944 7.771722,0.01575 8.229822,-0.668051 C 107.80345,75.117363 104.4,75.2 103,75.2 c -1.4,0 -4.726372,0.585414 -4.026372,0.885414 z" sodipodi:nodetypes="ccsc"/>
  <path style="fill:#4d148c;stroke:none" inkscape:connector-curvature="0" id="path3061" d="m 15,90.2 c 0,0.5 1.2,0.5 2.8,0.2 3.9,-1 4.1,-1.5 0.4,-1.2 -1.8,0.1 -3.2,0.6 -3.2,1 z"/>
  <path style="fill:#4d148c;stroke:none" inkscape:connector-curvature="0" id="path3063" d="m 47.5,89.9 c -0.9,1.6 2.7,2.9 7.2,2.7 3.7,-0.2 7.6,-1.6 4.4,-1.6 -0.7,0 -0.9,-0.4 -0.6,-1 0.3,-0.6 -0.1,-0.7 -1,-0.3 -1.3,0.5 -1.4,0.7 -0.3,1.4 C 58,91.7 58.1,92 57.3,92 55,92 53,90.8 53.7,89.7 54,89.1 53.8,89 53.1,89.4 c -0.6,0.4 -0.9,1.2 -0.6,1.7 0.7,1 -0.6,1.2 -3,0.3 -1.3,-0.5 -1.4,-0.8 -0.3,-1.5 0.9,-0.6 0.9,-0.9 0.1,-0.9 -0.6,0 -1.4,0.4 -1.8,0.9 z"/>
  <path style="fill:#4d148c;stroke:none" inkscape:connector-curvature="0" id="path3065" d="m 62,90 c -1.3,0.9 -1.3,1 0,1 1.2,0 1.2,0.2 0.1,0.9 -0.9,0.6 -1,1.1 -0.2,1.5 0.6,0.4 1.1,0.3 1.1,-0.3 0,-0.6 0.8,-0.8 1.8,-0.5 1.6,0.5 1.6,0.5 0,-0.9 -1,-0.8 -1.5,-1.7 -1.1,-2 0.9,-1 0,-0.8 -1.7,0.3 z"/>
  <path style="fill:#4d148c;stroke:none" inkscape:connector-curvature="0" id="path3067" d="m 71,90.5 c -0.7,0.9 -1,1.8 -0.6,2.2 0.3,0.3 0.6,0 0.6,-0.8 0,-1.2 0.2,-1.2 0.9,0 0.6,0.9 1.1,1 1.5,0.2 0.4,-0.6 0.1,-1.1 -0.6,-1.1 -0.9,0 -0.9,-0.3 0.2,-1 0.8,-0.5 1,-1 0.4,-1 -0.6,0 -1.7,0.7 -2.4,1.5 z"/>
  <path style="fill:#4d148c;stroke:none" inkscape:connector-curvature="0" id="path3069" d="m 76.6,89.8 c -1.4,2.3 2.5,3.6 4.4,1.4 0.7,-0.8 0.7,-0.9 -0.1,-0.3 -1.4,1.1 -4.1,0.3 -3.3,-1 0.3,-0.5 0.3,-0.9 0,-0.9 -0.3,0 -0.7,0.4 -1,0.8 z"/>
  <path style="fill:#4d148c;stroke:none" inkscape:connector-curvature="0" id="path3071" d="m 89.3,90.8 c 0,1 0.7,1.9 1.3,1.9 0.9,0 1,-0.5 0.3,-1.9 -0.5,-1 -1.2,-1.8 -1.4,-1.8 -0.2,0 -0.3,0.8 -0.2,1.8 z"/>
  <path style="fill:#4d148c;stroke:none" inkscape:connector-curvature="0" id="path3073" d="m 22.3,91.3 c 0,0.8 0.6,1.4 1.4,1.4 0.9,0 1,-0.4 0.2,-1.4 -0.6,-0.7 -1.2,-1.3 -1.4,-1.3 -0.1,0 -0.2,0.6 -0.2,1.3 z"/>
  <path style="fill:#4d148c;stroke:none" inkscape:connector-curvature="0" id="path3075" d="M 27.3,90.7 C 28,91.8 24,94.3 21.9,94 18.3,93.5 15.6,94 16.7,95.1 18.3,96.7 42,96.9 42,95.2 42,94.6 40.9,94 39.6,94 c -1.3,0 -2.7,-0.6 -2.9,-1.3 -0.4,-1 -0.6,-1 -0.6,0 -0.1,0.9 -1.8,1.3 -5.3,1.3 -4.6,0 -5,-0.2 -3.3,-1.3 1.4,-1.1 1.5,-1.6 0.5,-2.2 -0.8,-0.5 -1.1,-0.4 -0.7,0.2 z"/>
  <path style="fill:#4d148c;stroke:none" inkscape:connector-curvature="0" id="path3077" d="m 43.4,91.4 c 1.1,0.9 2.4,1.6 3,1.6 1.2,0 0.7,-0.5 -2.4,-1.9 C 41.6,90 41.6,90 43.4,91.4 z"/>
  <path style="fill:#4d148c;stroke:none" inkscape:connector-curvature="0" id="path3079" d="m 83.8,92.7 c 0.6,0.2 1.8,0.2 2.5,0 0.6,-0.3 0.1,-0.5 -1.3,-0.5 -1.4,0 -1.9,0.2 -1.2,0.5 z"/>
</svg>
